<svg xmlns="http://www.w3.org/2000/svg" xmlns:xlink="http://www.w3.org/1999/xlink" width="122" zoomAndPan="magnify" viewBox="0 0 91.5 91.499997" height="122" preserveAspectRatio="xMidYMid meet" version="1.0"><defs><g/><clipPath id="a63ec6a5ac"><path d="M 0 0 L 91.003906 0 L 91.003906 91.003906 L 0 91.003906 Z M 0 0 " clip-rule="nonzero"/></clipPath><clipPath id="42c3ea9558"><path d="M 8.320312 9.101562 L 80.675781 9.101562 L 80.675781 81.453125 L 8.320312 81.453125 Z M 8.320312 9.101562 " clip-rule="nonzero"/></clipPath><clipPath id="c2823f597d"><path d="M 24.375 25.167969 L 64.652344 25.167969 L 64.652344 36.359375 L 24.375 36.359375 Z M 24.375 25.167969 " clip-rule="nonzero"/></clipPath><clipPath id="d306c01903"><path d="M 24.375 52.730469 L 64.652344 52.730469 L 64.652344 65.410156 L 24.375 65.410156 Z M 24.375 52.730469 " clip-rule="nonzero"/></clipPath><clipPath id="06a4d8bebc"><path d="M 38.566406 36.46875 L 50.503906 36.46875 L 50.503906 54.371094 L 38.566406 54.371094 Z M 38.566406 36.46875 " clip-rule="nonzero"/></clipPath><clipPath id="ddc621f8c4"><rect x="0" width="71" y="0" height="55"/></clipPath></defs><g clip-path="url(#a63ec6a5ac)"><path fill="#ffffff" d="M 0 0 L 91.003906 0 L 91.003906 91.003906 L 0 91.003906 Z M 0 0 " fill-opacity="1" fill-rule="nonzero"/><path fill="#ffffff" d="M 0 0 L 91.003906 0 L 91.003906 91.003906 L 0 91.003906 Z M 0 0 " fill-opacity="1" fill-rule="nonzero"/></g><g clip-path="url(#42c3ea9558)"><path fill="#ffffff" d="M 44.574219 81.605469 C 24.589844 81.605469 8.320312 65.335938 8.320312 45.351562 C 8.320312 25.371094 24.589844 9.101562 44.574219 9.101562 C 64.558594 9.101562 80.828125 25.371094 80.828125 45.351562 C 80.828125 65.335938 64.558594 81.605469 44.574219 81.605469 Z M 44.574219 9.636719 C 24.875 9.636719 8.855469 25.65625 8.855469 45.351562 C 8.855469 65.050781 24.875 81.070312 44.574219 81.070312 C 64.273438 81.070312 80.292969 65.050781 80.292969 45.351562 C 80.292969 25.65625 64.273438 9.636719 44.574219 9.636719 Z M 44.574219 9.636719 " fill-opacity="1" fill-rule="nonzero"/></g><g clip-path="url(#c2823f597d)"><path fill="#ffffff" d="M 44.570312 65.566406 C 33.4375 65.566406 24.375 56.5 24.375 45.367188 C 24.375 34.234375 33.4375 25.167969 44.570312 25.167969 C 55.707031 25.167969 64.769531 34.234375 64.769531 45.367188 C 64.769531 56.5 55.707031 65.566406 44.570312 65.566406 Z M 44.570312 25.46875 C 33.597656 25.46875 24.671875 34.390625 24.671875 45.367188 C 24.671875 56.339844 33.597656 65.265625 44.570312 65.265625 C 55.546875 65.265625 64.472656 56.339844 64.472656 45.367188 C 64.472656 34.390625 55.546875 25.46875 44.570312 25.46875 Z M 44.570312 25.46875 " fill-opacity="1" fill-rule="nonzero"/></g><g clip-path="url(#d306c01903)"><path fill="#ffffff" d="M 44.570312 65.535156 C 33.4375 65.535156 24.375 56.46875 24.375 45.335938 C 24.375 34.203125 33.4375 25.136719 44.570312 25.136719 C 55.707031 25.136719 64.769531 34.203125 64.769531 45.335938 C 64.769531 56.46875 55.707031 65.535156 44.570312 65.535156 Z M 44.570312 25.4375 C 33.597656 25.4375 24.671875 34.363281 24.671875 45.335938 C 24.671875 56.3125 33.597656 65.234375 44.570312 65.234375 C 55.546875 65.234375 64.472656 56.3125 64.472656 45.335938 C 64.472656 34.363281 55.546875 25.4375 44.570312 25.4375 Z M 44.570312 25.4375 " fill-opacity="1" fill-rule="nonzero"/></g><g clip-path="url(#06a4d8bebc)"><path fill="#5a6a85" d="M 43.570312 36.351562 L 43.570312 50.527344 L 39.984375 46.941406 L 38.566406 48.355469 L 44.570312 54.359375 L 50.574219 48.355469 L 49.15625 46.941406 L 45.570312 50.527344 L 45.570312 36.351562 Z M 43.570312 36.351562 " fill-opacity="1" fill-rule="nonzero"/></g><g transform="matrix(1, 0, 0, 1, 10, 11)"><g clip-path="url(#ddc621f8c4)"><g fill="#5a6a85" fill-opacity="1"><g transform="translate(7.597107, 47.331194)"><g><path d="M -3.578125 -0.3125 L -3.84375 -1.15625 L -1.140625 -3.46875 L -0.84375 -2.59375 L -2.875 -0.96875 L -0.265625 -0.8125 L 0.015625 0.03125 Z M -1.421875 -0.390625 L -2.03125 -2.21875 L -1.421875 -2.421875 L -0.8125 -0.59375 Z M -1.421875 -0.390625 "/></g></g></g><g fill="#5a6a85" fill-opacity="1"><g transform="translate(5.887108, 40.873546)"><g><path d="M -3.3125 0.03125 L -3.40625 -0.84375 L -0.84375 -1.109375 L -0.984375 -2.484375 L -0.265625 -2.5625 L -0.03125 -0.3125 Z M -3.3125 0.03125 "/></g></g></g><g fill="#5a6a85" fill-opacity="1"><g transform="translate(5.604746, 35.164922)"><g><path d="M -3.25 -0.625 L -3.171875 -1.5 L -0.609375 -1.25 L -0.46875 -2.625 L 0.25 -2.5625 L 0.03125 -0.3125 Z M -3.25 -0.625 "/></g></g></g><g fill="#5a6a85" fill-opacity="1"><g transform="translate(6.465418, 29.501562)"><g><path d="M -1.5625 -0.71875 L -1.234375 -1.90625 L -0.734375 -1.765625 L -1.0625 -0.578125 Z M -1.5625 -0.71875 "/></g></g></g><g fill="#5a6a85" fill-opacity="1"><g transform="translate(8.046024, 24.894196)"><g><path d="M -2.84375 -1.6875 L -2.484375 -2.484375 L 0.5 -1.078125 L 0.140625 -0.28125 Z M -2.84375 -1.6875 "/></g></g></g><g fill="#5a6a85" fill-opacity="1"><g transform="translate(10.169425, 20.840022)"><g><path d="M -2.46875 -2.203125 L -2.015625 -2.828125 L 0.84375 -2.84375 L 0.796875 -2.625 L -1.125 -4.03125 L -0.65625 -4.671875 L 2 -2.71875 L 1.5625 -2.109375 L -1.3125 -2.078125 L -1.234375 -2.3125 L 0.671875 -0.90625 L 0.1875 -0.25 Z M -2.46875 -2.203125 "/></g></g></g><g fill="#5a6a85" fill-opacity="1"><g transform="translate(14.460072, 15.648552)"><g><path d="M 0.4375 -3.453125 C 0.300781 -3.429688 0.164062 -3.394531 0.03125 -3.34375 C -0.09375 -3.300781 -0.207031 -3.25 -0.3125 -3.1875 C -0.425781 -3.132812 -0.519531 -3.078125 -0.59375 -3.015625 C -0.675781 -2.953125 -0.726562 -2.882812 -0.75 -2.8125 C -0.769531 -2.738281 -0.753906 -2.671875 -0.703125 -2.609375 C -0.640625 -2.546875 -0.566406 -2.515625 -0.484375 -2.515625 C -0.410156 -2.523438 -0.320312 -2.546875 -0.21875 -2.578125 C -0.125 -2.617188 -0.015625 -2.671875 0.109375 -2.734375 C 0.234375 -2.796875 0.351562 -2.847656 0.46875 -2.890625 C 0.59375 -2.929688 0.71875 -2.957031 0.84375 -2.96875 C 0.96875 -2.976562 1.085938 -2.960938 1.203125 -2.921875 C 1.328125 -2.878906 1.445312 -2.789062 1.5625 -2.65625 C 1.707031 -2.488281 1.785156 -2.304688 1.796875 -2.109375 C 1.804688 -1.921875 1.757812 -1.734375 1.65625 -1.546875 C 1.5625 -1.359375 1.421875 -1.179688 1.234375 -1.015625 C 1.085938 -0.890625 0.929688 -0.78125 0.765625 -0.6875 C 0.609375 -0.601562 0.441406 -0.535156 0.265625 -0.484375 C 0.0859375 -0.429688 -0.0820312 -0.40625 -0.25 -0.40625 L -0.4375 -1.125 C -0.289062 -1.125 -0.140625 -1.140625 0.015625 -1.171875 C 0.171875 -1.210938 0.316406 -1.265625 0.453125 -1.328125 C 0.585938 -1.390625 0.703125 -1.460938 0.796875 -1.546875 C 0.890625 -1.617188 0.945312 -1.703125 0.96875 -1.796875 C 0.988281 -1.890625 0.96875 -1.96875 0.90625 -2.03125 C 0.851562 -2.09375 0.785156 -2.117188 0.703125 -2.109375 C 0.628906 -2.109375 0.539062 -2.085938 0.4375 -2.046875 C 0.332031 -2.003906 0.222656 -1.953125 0.109375 -1.890625 C -0.00390625 -1.835938 -0.117188 -1.789062 -0.234375 -1.75 C -0.359375 -1.707031 -0.484375 -1.675781 -0.609375 -1.65625 C -0.734375 -1.644531 -0.851562 -1.660156 -0.96875 -1.703125 C -1.09375 -1.742188 -1.207031 -1.828125 -1.3125 -1.953125 C -1.445312 -2.109375 -1.523438 -2.28125 -1.546875 -2.46875 C -1.566406 -2.65625 -1.53125 -2.84375 -1.4375 -3.03125 C -1.34375 -3.21875 -1.195312 -3.398438 -1 -3.578125 C -0.8125 -3.742188 -0.609375 -3.875 -0.390625 -3.96875 C -0.171875 -4.070312 0.0390625 -4.140625 0.25 -4.171875 Z M 0.4375 -3.453125 "/></g></g></g><g fill="#5a6a85" fill-opacity="1"><g transform="translate(19.302348, 11.912332)"><g><path d="M -1.40625 -3 L -0.640625 -3.4375 L 1.03125 -0.59375 L 0.265625 -0.15625 Z M -1.40625 -3 "/></g></g></g><g fill="#5a6a85" fill-opacity="1"><g transform="translate(23.347442, 9.768182)"><g><path d="M 0.546875 -3.6875 C 0.785156 -3.769531 1.019531 -3.8125 1.25 -3.8125 C 1.488281 -3.8125 1.703125 -3.765625 1.890625 -3.671875 C 2.078125 -3.585938 2.242188 -3.460938 2.390625 -3.296875 C 2.546875 -3.140625 2.664062 -2.945312 2.75 -2.71875 C 2.832031 -2.476562 2.863281 -2.25 2.84375 -2.03125 C 2.832031 -1.8125 2.773438 -1.609375 2.671875 -1.421875 C 2.578125 -1.234375 2.4375 -1.066406 2.25 -0.921875 C 2.070312 -0.773438 1.859375 -0.65625 1.609375 -0.5625 L 0.296875 -0.109375 L -0.796875 -3.21875 Z M 1.4375 -1.234375 C 1.550781 -1.273438 1.648438 -1.332031 1.734375 -1.40625 C 1.816406 -1.488281 1.878906 -1.582031 1.921875 -1.6875 C 1.972656 -1.789062 2 -1.90625 2 -2.03125 C 2 -2.15625 1.972656 -2.28125 1.921875 -2.40625 C 1.878906 -2.539062 1.816406 -2.65625 1.734375 -2.75 C 1.648438 -2.851562 1.554688 -2.929688 1.453125 -2.984375 C 1.359375 -3.046875 1.25 -3.082031 1.125 -3.09375 C 1.007812 -3.101562 0.890625 -3.082031 0.765625 -3.03125 L 0.265625 -2.859375 L 0.890625 -1.046875 Z M 1.4375 -1.234375 "/></g></g></g><g fill="#5a6a85" fill-opacity="1"><g transform="translate(29.725874, 7.915512)"><g><path d="M -0.0625 -3.3125 L 2.53125 -3.625 L 2.609375 -2.953125 L 0.875 -2.75 L 0.9375 -2.109375 L 2.5 -2.28125 L 2.578125 -1.609375 L 1.015625 -1.4375 L 1.09375 -0.8125 L 2.875 -1.015625 L 2.953125 -0.34375 L 0.3125 -0.03125 Z M -0.0625 -3.3125 "/></g></g></g><g fill="#5a6a85" fill-opacity="1"><g transform="translate(35.968407, 7.562008)"><g/></g></g><g fill="#5a6a85" fill-opacity="1"><g transform="translate(40.303204, 8.057674)"><g><path d="M 0.828125 -3.203125 L 3.578125 -2.515625 L 3.40625 -1.828125 L 2.4375 -2.0625 L 1.8125 0.453125 L 0.984375 0.25 L 1.609375 -2.265625 L 0.65625 -2.515625 Z M 0.828125 -3.203125 "/></g></g></g><g fill="#5a6a85" fill-opacity="1"><g transform="translate(45.986471, 9.794713)"><g><path d="M 1.734375 -2.828125 L 4.078125 -1.6875 L 3.78125 -1.078125 L 2.21875 -1.84375 L 1.9375 -1.265625 L 3.34375 -0.578125 L 3.046875 0.03125 L 1.640625 -0.65625 L 1.359375 -0.09375 L 2.96875 0.6875 L 2.671875 1.296875 L 0.28125 0.140625 Z M 1.734375 -2.828125 "/></g></g></g><g fill="#5a6a85" fill-opacity="1"><g transform="translate(51.426072, 12.815987)"><g><path d="M 3.484375 -0.046875 C 3.484375 -0.210938 3.445312 -0.367188 3.375 -0.515625 C 3.3125 -0.671875 3.222656 -0.796875 3.109375 -0.890625 C 3.003906 -0.960938 2.894531 -1.015625 2.78125 -1.046875 C 2.675781 -1.078125 2.5625 -1.082031 2.4375 -1.0625 C 2.3125 -1.039062 2.195312 -1 2.09375 -0.9375 C 2 -0.875 1.90625 -0.789062 1.8125 -0.6875 C 1.726562 -0.570312 1.664062 -0.457031 1.625 -0.34375 C 1.582031 -0.226562 1.566406 -0.109375 1.578125 0.015625 C 1.597656 0.140625 1.632812 0.253906 1.6875 0.359375 C 1.738281 0.460938 1.816406 0.550781 1.921875 0.625 C 2.023438 0.707031 2.15625 0.769531 2.3125 0.8125 C 2.46875 0.851562 2.628906 0.851562 2.796875 0.8125 L 2.859375 1.546875 C 2.679688 1.585938 2.503906 1.59375 2.328125 1.5625 C 2.160156 1.539062 1.992188 1.5 1.828125 1.4375 C 1.671875 1.375 1.53125 1.289062 1.40625 1.1875 C 1.21875 1.03125 1.066406 0.851562 0.953125 0.65625 C 0.835938 0.46875 0.765625 0.265625 0.734375 0.046875 C 0.710938 -0.171875 0.726562 -0.390625 0.78125 -0.609375 C 0.84375 -0.828125 0.953125 -1.035156 1.109375 -1.234375 C 1.253906 -1.421875 1.425781 -1.566406 1.625 -1.671875 C 1.832031 -1.773438 2.039062 -1.835938 2.25 -1.859375 C 2.46875 -1.878906 2.6875 -1.851562 2.90625 -1.78125 C 3.132812 -1.71875 3.347656 -1.609375 3.546875 -1.453125 C 3.671875 -1.359375 3.785156 -1.238281 3.890625 -1.09375 C 3.992188 -0.957031 4.070312 -0.8125 4.125 -0.65625 C 4.175781 -0.5 4.21875 -0.34375 4.25 -0.1875 Z M 3.484375 -0.046875 "/></g></g></g><g fill="#5a6a85" fill-opacity="1"><g transform="translate(56.154725, 16.971326)"><g><path d="M 2.78125 -1.8125 L 3.328125 -1.140625 L 2.265625 -0.296875 L 3.09375 0.75 L 4.15625 -0.09375 L 4.6875 0.5625 L 2.109375 2.625 L 1.578125 1.96875 L 2.5625 1.171875 L 1.734375 0.125 L 0.75 0.921875 L 0.203125 0.25 Z M 2.78125 -1.8125 "/></g></g></g><g fill="#5a6a85" fill-opacity="1"><g transform="translate(60.082281, 22.426902)"><g><path d="M 3.109375 -1.140625 L 3.4375 -0.453125 L 2.109375 2.09375 L 1.9375 1.9375 L 4.078125 0.90625 L 4.421875 1.625 L 1.453125 3.046875 L 1.125 2.375 L 2.46875 -0.1875 L 2.625 0 L 0.484375 1.015625 L 0.140625 0.28125 Z M 3.109375 -1.140625 "/></g></g></g><g fill="#5a6a85" fill-opacity="1"><g transform="translate(62.616596, 28.693752)"><g><path d="M 3.265625 -0.515625 L 3.484375 0.34375 L 0.296875 1.15625 L 0.078125 0.296875 Z M 3.265625 -0.515625 "/></g></g></g><g fill="#5a6a85" fill-opacity="1"><g transform="translate(63.554718, 33.174479)"><g><path d="M 3.3125 0.125 L 3.359375 1 L 1.90625 1.078125 L 3.4375 2.234375 L 3.484375 3.234375 L 0.890625 1.140625 L 0.0625 1.1875 L 0.015625 0.3125 Z M 2.15625 2.015625 L 0.203125 3.484375 L 0.140625 2.453125 L 1.453125 1.46875 Z M 2.15625 2.015625 "/></g></g></g><g fill="#5a6a85" fill-opacity="1"><g transform="translate(63.587566, 39.733335)"><g><path d="M 3.015625 1.9375 L 2.859375 2.8125 L -0.625 3.609375 L -0.46875 2.6875 L 2.09375 2.1875 L -0.140625 0.84375 L 0 -0.03125 Z M 1.078125 1.015625 L 0.75 2.90625 L 0.109375 2.796875 L 0.4375 0.90625 Z M 1.078125 1.015625 "/></g></g></g><g fill="#5a6a85" fill-opacity="1"><g transform="translate(62.053689, 46.257326)"><g/></g></g><g fill="#5a6a85" fill-opacity="1"><g transform="translate(60.285237, 50.274174)"><g/></g></g></g></g></svg>