<svg xmlns="http://www.w3.org/2000/svg" xmlns:xlink="http://www.w3.org/1999/xlink" width="122" zoomAndPan="magnify" viewBox="0 0 91.5 91.499997" height="122" preserveAspectRatio="xMidYMid meet" version="1.0"><defs><g/><clipPath id="b0f7e53e0c"><path d="M 8.320312 9.101562 L 80.675781 9.101562 L 80.675781 81.453125 L 8.320312 81.453125 Z M 8.320312 9.101562 " clip-rule="nonzero"/></clipPath><clipPath id="776e18b59b"><path d="M 24.375 25.167969 L 64.652344 25.167969 L 64.652344 36.359375 L 24.375 36.359375 Z M 24.375 25.167969 " clip-rule="nonzero"/></clipPath><clipPath id="4661ae9bb4"><path d="M 24.375 52.730469 L 64.652344 52.730469 L 64.652344 65.410156 L 24.375 65.410156 Z M 24.375 52.730469 " clip-rule="nonzero"/></clipPath><clipPath id="e0b9935e2c"><path d="M 1 3 L 91.003906 3 L 91.003906 78 L 1 78 Z M 1 3 " clip-rule="nonzero"/></clipPath><clipPath id="a9dfb3fa2b"><rect x="0" width="91" y="0" height="75"/></clipPath></defs><g clip-path="url(#b0f7e53e0c)"><path fill="#ffffff" d="M 44.574219 81.605469 C 24.589844 81.605469 8.320312 65.335938 8.320312 45.351562 C 8.320312 25.371094 24.589844 9.101562 44.574219 9.101562 C 64.558594 9.101562 80.828125 25.371094 80.828125 45.351562 C 80.828125 65.335938 64.558594 81.605469 44.574219 81.605469 Z M 44.574219 9.636719 C 24.875 9.636719 8.855469 25.65625 8.855469 45.351562 C 8.855469 65.050781 24.875 81.070312 44.574219 81.070312 C 64.273438 81.070312 80.292969 65.050781 80.292969 45.351562 C 80.292969 25.65625 64.273438 9.636719 44.574219 9.636719 Z M 44.574219 9.636719 " fill-opacity="1" fill-rule="nonzero"/></g><g clip-path="url(#776e18b59b)"><path fill="#ffffff" d="M 44.570312 65.566406 C 33.4375 65.566406 24.375 56.5 24.375 45.367188 C 24.375 34.234375 33.4375 25.167969 44.570312 25.167969 C 55.707031 25.167969 64.769531 34.234375 64.769531 45.367188 C 64.769531 56.5 55.707031 65.566406 44.570312 65.566406 Z M 44.570312 25.46875 C 33.597656 25.46875 24.671875 34.390625 24.671875 45.367188 C 24.671875 56.339844 33.597656 65.265625 44.570312 65.265625 C 55.546875 65.265625 64.472656 56.339844 64.472656 45.367188 C 64.472656 34.390625 55.546875 25.46875 44.570312 25.46875 Z M 44.570312 25.46875 " fill-opacity="1" fill-rule="nonzero"/></g><g clip-path="url(#4661ae9bb4)"><path fill="#ffffff" d="M 44.570312 65.535156 C 33.4375 65.535156 24.375 56.46875 24.375 45.335938 C 24.375 34.203125 33.4375 25.136719 44.570312 25.136719 C 55.707031 25.136719 64.769531 34.203125 64.769531 45.335938 C 64.769531 56.46875 55.707031 65.535156 44.570312 65.535156 Z M 44.570312 25.4375 C 33.597656 25.4375 24.671875 34.363281 24.671875 45.335938 C 24.671875 56.3125 33.597656 65.234375 44.570312 65.234375 C 55.546875 65.234375 64.472656 56.3125 64.472656 45.335938 C 64.472656 34.363281 55.546875 25.4375 44.570312 25.4375 Z M 44.570312 25.4375 " fill-opacity="1" fill-rule="nonzero"/></g><g clip-path="url(#e0b9935e2c)"><g transform="matrix(1, 0, 0, 1, 1, 3)"><g clip-path="url(#a9dfb3fa2b)"><g fill="#000000" fill-opacity="1"><g transform="translate(13.075519, 65.036851)"><g><path d="M -4.53125 0.328125 L -5.046875 -0.671875 L -2.109375 -4.140625 L -1.578125 -3.109375 L -3.796875 -0.640625 L -0.5 -0.96875 L 0.015625 0.03125 Z M -1.875 -0.21875 L -2.984375 -2.390625 L -2.25 -2.765625 L -1.140625 -0.59375 Z M -1.875 -0.21875 "/></g></g></g><g fill="#000000" fill-opacity="1"><g transform="translate(9.489734, 56.722262)"><g><path d="M -4.15625 0.609375 L -4.421875 -0.453125 L -1.25 -1.234375 L -1.671875 -2.953125 L -0.78125 -3.171875 L -0.09375 -0.390625 Z M -4.15625 0.609375 "/></g></g></g><g fill="#000000" fill-opacity="1"><g transform="translate(8.073566, 49.020839)"><g><path d="M -4.203125 -0.28125 L -4.234375 -1.375 L -0.96875 -1.46875 L -1.015625 -3.234375 L -0.09375 -3.265625 L -0.015625 -0.40625 Z M -4.203125 -0.28125 "/></g></g></g><g fill="#000000" fill-opacity="1"><g transform="translate(8.337716, 41.179107)"><g><path d="M -2.078125 -0.6875 L -1.828125 -2.234375 L -1.171875 -2.125 L -1.421875 -0.578125 Z M -2.078125 -0.6875 "/></g></g></g><g fill="#000000" fill-opacity="1"><g transform="translate(9.872768, 34.596957)"><g><path d="M -3.796875 -1.796875 L -3.421875 -2.828125 L 0.515625 -1.40625 L 0.140625 -0.375 Z M -3.796875 -1.796875 "/></g></g></g><g fill="#000000" fill-opacity="1"><g transform="translate(12.345895, 28.709696)"><g><path d="M -3.328125 -2.5625 L -2.828125 -3.375 L 0.8125 -3.703125 L 0.75 -3.375 L -1.8125 -4.984375 L -1.28125 -5.859375 L 2.265625 -3.640625 L 1.765625 -2.828125 L -1.859375 -2.5 L -1.8125 -2.796875 L 0.75 -1.203125 L 0.21875 -0.34375 Z M -3.328125 -2.5625 "/></g></g></g><g fill="#000000" fill-opacity="1"><g transform="translate(17.650108, 21.28516)"><g><path d="M 0.28125 -4.390625 C 0.113281 -4.347656 -0.046875 -4.296875 -0.203125 -4.234375 C -0.367188 -4.171875 -0.519531 -4.097656 -0.65625 -4.015625 C -0.800781 -3.941406 -0.914062 -3.863281 -1 -3.78125 C -1.082031 -3.695312 -1.132812 -3.601562 -1.15625 -3.5 C -1.1875 -3.40625 -1.164062 -3.316406 -1.09375 -3.234375 C -1.019531 -3.160156 -0.929688 -3.128906 -0.828125 -3.140625 C -0.734375 -3.160156 -0.617188 -3.195312 -0.484375 -3.25 C -0.359375 -3.300781 -0.222656 -3.367188 -0.078125 -3.453125 C 0.0546875 -3.546875 0.203125 -3.625 0.359375 -3.6875 C 0.515625 -3.75 0.671875 -3.789062 0.828125 -3.8125 C 0.984375 -3.84375 1.140625 -3.832031 1.296875 -3.78125 C 1.460938 -3.726562 1.625 -3.625 1.78125 -3.46875 C 1.976562 -3.269531 2.085938 -3.050781 2.109375 -2.8125 C 2.128906 -2.570312 2.082031 -2.328125 1.96875 -2.078125 C 1.863281 -1.828125 1.703125 -1.585938 1.484375 -1.359375 C 1.316406 -1.203125 1.128906 -1.054688 0.921875 -0.921875 C 0.722656 -0.796875 0.515625 -0.695312 0.296875 -0.625 C 0.078125 -0.5625 -0.140625 -0.519531 -0.359375 -0.5 L -0.640625 -1.390625 C -0.453125 -1.410156 -0.257812 -1.445312 -0.0625 -1.5 C 0.125 -1.5625 0.300781 -1.632812 0.46875 -1.71875 C 0.644531 -1.8125 0.785156 -1.90625 0.890625 -2 C 1.003906 -2.113281 1.070312 -2.226562 1.09375 -2.34375 C 1.113281 -2.457031 1.082031 -2.554688 1 -2.640625 C 0.925781 -2.710938 0.835938 -2.742188 0.734375 -2.734375 C 0.628906 -2.722656 0.515625 -2.6875 0.390625 -2.625 C 0.265625 -2.5625 0.128906 -2.488281 -0.015625 -2.40625 C -0.160156 -2.332031 -0.304688 -2.257812 -0.453125 -2.1875 C -0.597656 -2.125 -0.75 -2.078125 -0.90625 -2.046875 C -1.0625 -2.023438 -1.21875 -2.035156 -1.375 -2.078125 C -1.53125 -2.117188 -1.6875 -2.21875 -1.84375 -2.375 C -2.019531 -2.5625 -2.125 -2.769531 -2.15625 -3 C -2.195312 -3.226562 -2.160156 -3.472656 -2.046875 -3.734375 C -1.941406 -3.992188 -1.769531 -4.238281 -1.53125 -4.46875 C -1.320312 -4.6875 -1.082031 -4.863281 -0.8125 -5 C -0.539062 -5.132812 -0.273438 -5.234375 -0.015625 -5.296875 Z M 0.28125 -4.390625 "/></g></g></g><g fill="#000000" fill-opacity="1"><g transform="translate(23.962612, 15.836589)"><g><path d="M -1.9375 -3.734375 L -1.03125 -4.328125 L 1.25 -0.8125 L 0.34375 -0.21875 Z M -1.9375 -3.734375 "/></g></g></g><g fill="#000000" fill-opacity="1"><g transform="translate(29.487892, 12.632724)"><g><path d="M 0.5625 -4.703125 C 0.863281 -4.816406 1.160156 -4.875 1.453125 -4.875 C 1.742188 -4.875 2.007812 -4.828125 2.25 -4.734375 C 2.5 -4.640625 2.722656 -4.488281 2.921875 -4.28125 C 3.117188 -4.082031 3.273438 -3.835938 3.390625 -3.546875 C 3.503906 -3.253906 3.550781 -2.96875 3.53125 -2.6875 C 3.519531 -2.414062 3.457031 -2.15625 3.34375 -1.90625 C 3.226562 -1.664062 3.054688 -1.445312 2.828125 -1.25 C 2.609375 -1.0625 2.34375 -0.90625 2.03125 -0.78125 L 0.375 -0.140625 L -1.125 -4.046875 Z M 1.765625 -1.609375 C 1.921875 -1.671875 2.050781 -1.753906 2.15625 -1.859375 C 2.257812 -1.960938 2.332031 -2.078125 2.375 -2.203125 C 2.425781 -2.335938 2.445312 -2.484375 2.4375 -2.640625 C 2.4375 -2.796875 2.40625 -2.957031 2.34375 -3.125 C 2.28125 -3.300781 2.191406 -3.453125 2.078125 -3.578125 C 1.972656 -3.703125 1.851562 -3.796875 1.71875 -3.859375 C 1.59375 -3.921875 1.457031 -3.953125 1.3125 -3.953125 C 1.164062 -3.960938 1.015625 -3.9375 0.859375 -3.875 L 0.21875 -3.640625 L 1.09375 -1.359375 Z M 1.765625 -1.609375 "/></g></g></g><g fill="#000000" fill-opacity="1"><g transform="translate(38.075759, 9.918224)"><g><path d="M -0.140625 -4.203125 L 3.125 -4.640625 L 3.234375 -3.78125 L 1.046875 -3.5 L 1.15625 -2.71875 L 3.125 -2.96875 L 3.234375 -2.109375 L 1.265625 -1.859375 L 1.375 -1.0625 L 3.625 -1.359375 L 3.734375 -0.5 L 0.40625 -0.046875 Z M -0.140625 -4.203125 "/></g></g></g><g fill="#000000" fill-opacity="1"><g transform="translate(46.569985, 9.367356)"><g/></g></g><g fill="#000000" fill-opacity="1"><g transform="translate(52.638566, 10.11305)"><g><path d="M 1.125 -4.03125 L 4.578125 -3.109375 L 4.34375 -2.25 L 3.140625 -2.578125 L 2.296875 0.609375 L 1.234375 0.328125 L 2.078125 -2.859375 L 0.890625 -3.171875 Z M 1.125 -4.03125 "/></g></g></g><g fill="#000000" fill-opacity="1"><g transform="translate(60.345109, 12.667789)"><g><path d="M 2.3125 -3.515625 L 5.234375 -1.96875 L 4.828125 -1.203125 L 2.875 -2.234375 L 2.515625 -1.53125 L 4.265625 -0.609375 L 3.859375 0.140625 L 2.109375 -0.78125 L 1.734375 -0.0625 L 3.734375 1 L 3.328125 1.765625 L 0.359375 0.1875 Z M 2.3125 -3.515625 "/></g></g></g><g fill="#000000" fill-opacity="1"><g transform="translate(67.587145, 17.067976)"><g><path d="M 4.421875 0.171875 C 4.429688 -0.046875 4.398438 -0.253906 4.328125 -0.453125 C 4.253906 -0.660156 4.144531 -0.820312 4 -0.9375 C 3.882812 -1.039062 3.753906 -1.113281 3.609375 -1.15625 C 3.460938 -1.207031 3.3125 -1.222656 3.15625 -1.203125 C 3.007812 -1.191406 2.863281 -1.148438 2.71875 -1.078125 C 2.582031 -1.003906 2.457031 -0.898438 2.34375 -0.765625 C 2.226562 -0.628906 2.140625 -0.488281 2.078125 -0.34375 C 2.023438 -0.195312 2 -0.046875 2 0.109375 C 2.007812 0.265625 2.046875 0.410156 2.109375 0.546875 C 2.171875 0.679688 2.257812 0.800781 2.375 0.90625 C 2.507812 1.019531 2.675781 1.101562 2.875 1.15625 C 3.082031 1.207031 3.289062 1.234375 3.5 1.234375 L 3.546875 2.15625 C 3.316406 2.164062 3.09375 2.148438 2.875 2.109375 C 2.65625 2.078125 2.441406 2.015625 2.234375 1.921875 C 2.035156 1.835938 1.859375 1.726562 1.703125 1.59375 C 1.472656 1.382812 1.289062 1.148438 1.15625 0.890625 C 1.03125 0.640625 0.957031 0.375 0.9375 0.09375 C 0.914062 -0.1875 0.953125 -0.460938 1.046875 -0.734375 C 1.140625 -1.003906 1.285156 -1.253906 1.484375 -1.484375 C 1.691406 -1.722656 1.921875 -1.898438 2.171875 -2.015625 C 2.429688 -2.140625 2.695312 -2.207031 2.96875 -2.21875 C 3.25 -2.238281 3.523438 -2.195312 3.796875 -2.09375 C 4.078125 -2 4.34375 -1.847656 4.59375 -1.640625 C 4.75 -1.503906 4.882812 -1.347656 5 -1.171875 C 5.125 -0.992188 5.21875 -0.800781 5.28125 -0.59375 C 5.34375 -0.394531 5.378906 -0.191406 5.390625 0.015625 Z M 4.421875 0.171875 "/></g></g></g><g fill="#000000" fill-opacity="1"><g transform="translate(73.70324, 23.065812)"><g><path d="M 3.65625 -2.078125 L 4.28125 -1.1875 L 2.875 -0.203125 L 3.84375 1.1875 L 5.25 0.203125 L 5.890625 1.09375 L 2.46875 3.5 L 1.828125 2.609375 L 3.140625 1.6875 L 2.171875 0.296875 L 0.859375 1.21875 L 0.234375 0.328125 Z M 3.65625 -2.078125 "/></g></g></g><g fill="#000000" fill-opacity="1"><g transform="translate(78.493531, 30.81312)"><g><path d="M 4.046875 -1.125 L 4.390625 -0.234375 L 2.46875 2.875 L 2.25 2.625 L 5.078125 1.546875 L 5.4375 2.5 L 1.53125 4 L 1.1875 3.109375 L 3.125 0.015625 L 3.328125 0.25 L 0.515625 1.328125 L 0.140625 0.375 Z M 4.046875 -1.125 "/></g></g></g><g fill="#000000" fill-opacity="1"><g transform="translate(81.190694, 39.562128)"><g><path d="M 4.203125 -0.25 L 4.375 0.828125 L 0.234375 1.484375 L 0.0625 0.40625 Z M 4.203125 -0.25 "/></g></g></g><g fill="#000000" fill-opacity="1"><g transform="translate(81.855403, 45.914347)"><g><path d="M 4.171875 0.625 L 4.109375 1.71875 L 2.265625 1.625 L 4.03125 3.28125 L 3.96875 4.546875 L 0.96875 1.546875 L -0.078125 1.5 L -0.015625 0.40625 Z M 2.4375 2.84375 L -0.234375 4.421875 L -0.15625 3.125 L 1.609375 2.0625 Z M 2.4375 2.84375 "/></g></g></g><g fill="#000000" fill-opacity="1"><g transform="translate(80.861551, 54.7602)"><g><path d="M 3.484375 2.90625 L 3.15625 3.984375 L -1.34375 4.4375 L -1.015625 3.328125 L 2.28125 3.109375 L -0.3125 1.046875 L 0.015625 -0.03125 Z M 1.203125 1.453125 L 0.5 3.78125 L -0.296875 3.546875 L 0.40625 1.21875 Z M 1.203125 1.453125 "/></g></g></g><g fill="#000000" fill-opacity="1"><g transform="translate(77.636656, 63.250393)"><g/></g></g><g fill="#000000" fill-opacity="1"><g transform="translate(74.357035, 68.44942)"><g/></g></g></g></g></g></svg>